<svg width="307" height="51" viewBox="0 0 307 51" fill="none" xmlns="http://www.w3.org/2000/svg">
<path d="M75.3758 34.3617V25.824C75.3758 21.406 71.8072 17.8325 67.3454 17.8325H66.9981C65.2633 17.8325 63.5281 18.428 62.6856 19.4704V9.34416C62.6856 8.10251 61.7436 7.45801 60.8016 7.45801C59.8596 7.45801 58.918 8.10292 58.918 9.34416V40.5663C58.918 41.7577 59.86 42.3532 60.8016 42.3532C61.6445 42.3532 62.4871 41.8565 62.6359 40.8651C63.3296 41.5593 64.7673 42.3532 66.8987 42.3532H67.345C71.757 42.3532 75.3758 38.7797 75.3758 34.3617ZM71.6087 34.3617C71.6087 36.6948 69.7251 38.5813 67.3454 38.5813H66.8991C64.6686 38.5813 62.686 37.0919 62.686 34.6596V25.4269C62.686 23.1431 64.669 21.6048 66.8991 21.6048H67.3454C69.7251 21.6048 71.6087 23.4913 71.6087 25.824V34.3617ZM91.1892 40.4667C91.1892 39.5238 90.5941 38.5813 89.3056 38.5813C87.7685 38.5311 86.5791 37.3401 86.5791 35.8009V9.34416C86.5791 8.10251 85.6375 7.45801 84.6951 7.45801C83.7535 7.45801 82.8115 8.10292 82.8115 9.34416V35.8009C82.8115 39.4242 85.6868 42.3532 89.3056 42.3532C90.5941 42.3532 91.1892 41.41 91.1892 40.4667ZM112.801 34.3617V25.824C112.801 21.406 109.233 17.8325 104.821 17.8325H104.325C99.913 17.8325 96.3439 21.406 96.3439 25.824V34.3617C96.3439 38.7797 99.913 42.3532 104.325 42.3532H104.821C109.232 42.3532 112.801 38.7797 112.801 34.3617ZM109.034 34.3617C109.034 36.6948 107.151 38.5813 104.821 38.5813H104.374C101.995 38.5813 100.111 36.6948 100.111 34.3617V25.824C100.111 23.4913 101.995 21.6048 104.325 21.6048H104.821C107.151 21.6048 109.034 23.4913 109.034 25.824V34.3617ZM135.653 34.3617C135.653 33.0715 134.711 32.4261 133.769 32.4261C132.878 32.4261 131.935 33.0715 131.886 34.3617C131.787 36.6948 130.002 38.5813 127.672 38.5813H127.226C124.847 38.5813 122.963 36.6948 122.963 34.3617V25.824C122.963 23.4913 124.847 21.6048 127.177 21.6048H127.672C130.002 21.6048 131.786 23.3419 131.885 25.8734C131.935 27.115 132.877 27.7106 133.769 27.7106C134.711 27.7106 135.653 27.0648 135.653 25.824C135.653 21.406 132.034 17.8325 127.671 17.8325H127.176C122.814 17.8325 119.195 21.3566 119.195 25.824V34.3617C119.195 38.7797 122.764 42.3532 127.176 42.3532H127.671C132.084 42.3532 135.653 38.7797 135.653 34.3617ZM159.397 40.4667C159.397 40.1691 159.348 39.8222 159.149 39.5238L152.358 27.6106L158.505 21.0586C158.902 20.6615 159.05 20.2149 159.05 19.768C159.05 18.7745 158.207 17.832 157.117 17.832C156.671 17.832 156.175 18.03 155.778 18.4774L146.36 28.504V9.34416C146.36 8.10251 145.418 7.45801 144.476 7.45801C143.534 7.45801 142.592 8.10292 142.592 9.34416V40.4667C142.592 41.7079 143.534 42.3532 144.476 42.3532C145.418 42.3532 146.36 41.7079 146.36 40.4667V34.0629L149.681 30.4894L155.877 41.3598C156.274 42.0557 156.868 42.3532 157.464 42.3532C158.604 42.3532 159.397 41.4593 159.397 40.4667ZM180.81 34.3617C180.81 33.0715 179.868 32.4261 178.927 32.4261C178.035 32.4261 177.092 33.0715 177.043 34.3617C176.944 36.6948 175.159 38.5813 172.83 38.5813H172.383C170.004 38.5813 168.12 36.6948 168.12 34.3617V25.824C168.12 23.4913 170.004 21.6048 172.334 21.6048H172.83C175.159 21.6048 176.944 23.3419 177.043 25.8734C177.092 27.115 178.035 27.7106 178.927 27.7106C179.869 27.7106 180.81 27.0648 180.81 25.824C180.81 21.406 177.192 17.8325 172.83 17.8325H172.334C167.972 17.8325 164.353 21.3566 164.353 25.824V34.3617C164.353 38.7797 167.923 42.3532 172.334 42.3532H172.83C177.242 42.3532 180.81 38.7797 180.81 34.3617ZM204.208 40.4667V25.824C204.208 21.406 200.639 17.8325 196.226 17.8325H195.83C194.095 17.8325 192.36 18.428 191.516 19.3215V9.34416C191.516 8.10251 190.575 7.45801 189.635 7.45801C188.692 7.45801 187.751 8.10292 187.751 9.34416V40.4667C187.751 41.7079 188.693 42.3532 189.635 42.3532C190.576 42.3532 191.516 41.7079 191.516 40.4667V25.5758C191.516 22.9942 193.749 21.6048 196.029 21.6048C198.209 21.6048 200.44 22.9452 200.44 25.824V40.4667C200.44 41.7079 201.382 42.3532 202.324 42.3532C203.266 42.3532 204.208 41.7079 204.208 40.4667ZM228.993 40.4185C228.993 39.6234 228.497 38.8291 227.406 38.6307C226.515 38.4822 226.118 37.8854 226.118 36.9923V25.4758C226.118 21.2072 222.747 17.832 218.335 17.832H217.988C215.361 17.832 212.188 18.8745 210.602 22.4484C210.453 22.746 210.403 23.0436 210.403 23.3419C210.403 24.3844 211.346 25.0791 212.287 25.0791C212.932 25.0791 213.576 24.7815 213.973 24.086C214.915 22.448 215.956 21.6043 217.988 21.6043H218.335C220.517 21.6043 222.35 22.6966 222.35 25.6244C222.35 25.873 222.35 26.2701 222.202 26.4685C221.013 28.1567 210.008 26.7661 209.661 34.609V35.2046C209.661 39.8218 213.626 42.3528 217.642 42.3528H218.088C220.12 42.3528 222.004 41.6083 223.442 40.3683C224.086 41.3112 225.127 42.0557 226.812 42.3034C226.912 42.3528 227.06 42.3528 227.16 42.3528C228.348 42.3532 228.993 41.41 228.993 40.4185ZM222.35 34.3617C222.35 36.6948 220.417 38.5813 218.088 38.5813H217.641C215.113 38.5813 213.428 37.2409 213.428 35.1062V34.7086C213.576 31.2339 218.682 31.4331 222.35 30.4404V34.3617ZM238.708 40.4667V19.7186C238.708 18.4774 237.766 17.8325 236.825 17.8325C235.884 17.8325 234.941 18.4778 234.941 19.7186V40.4667C234.941 41.7079 235.884 42.3532 236.825 42.3532C237.766 42.3532 238.708 41.7079 238.708 40.4667ZM263.096 40.4667V25.824C263.096 20.3635 259.378 17.8325 255.165 17.8325H254.719C252.983 17.8325 251.348 18.428 250.456 19.3215C250.259 18.328 249.414 17.8325 248.572 17.8325C247.58 17.8325 246.639 18.5272 246.639 19.7186V40.4667C246.639 41.7079 247.581 42.3532 248.523 42.3532C249.465 42.3532 250.406 41.7079 250.406 40.4667V25.824C250.406 23.4913 252.34 21.6048 254.669 21.6048H255.116C257.495 21.6048 259.378 23.4913 259.378 25.824V40.4667C259.378 41.7079 260.321 42.3532 261.262 42.3532C262.204 42.3532 263.096 41.7079 263.096 40.4667ZM282.549 40.4667V19.7186C282.549 18.4774 281.607 17.8325 280.665 17.8325C279.724 17.8325 278.782 18.4778 278.782 19.7186V40.4667C278.782 41.7079 279.724 42.3532 280.665 42.3532C281.607 42.3532 282.549 41.7079 282.549 40.4667ZM306.391 34.3617V25.824C306.391 21.406 302.822 17.8325 298.411 17.8325H297.915C293.503 17.8325 289.935 21.406 289.935 25.824V34.3617C289.935 38.7797 293.503 42.3532 297.915 42.3532H298.411C302.823 42.3532 306.391 38.7797 306.391 34.3617ZM302.625 34.3617C302.625 36.6948 300.741 38.5813 298.411 38.5813H297.965C295.584 38.5813 293.702 36.6948 293.702 34.3617V25.824C293.702 23.4913 295.584 21.6048 297.915 21.6048H298.411C300.741 21.6048 302.625 23.4913 302.625 25.824V34.3617Z" fill="white" fill-opacity="0.5"/>
<path d="M21.5906 23.6941C20.4428 23.6941 19.5093 24.6292 19.5093 25.7782C19.5093 26.9272 20.4432 27.8619 21.5906 27.8619C22.738 27.8619 23.6723 26.9272 23.6723 25.7782C23.6723 24.6292 22.7385 23.6941 21.5906 23.6941Z" fill="white" fill-opacity="0.5"/>
<path d="M31.2141 17.9119C30.0662 17.9119 29.1336 18.847 29.1336 19.996C29.1336 21.1454 30.0666 22.0797 31.2141 22.0797C32.3615 22.0797 33.2961 21.145 33.2961 19.996C33.2965 18.847 32.3619 17.9119 31.2141 17.9119Z" fill="white" fill-opacity="0.5"/>
<path d="M40.8379 12.1299C39.6904 12.1299 38.7566 13.0646 38.7566 14.2136C38.7566 15.363 39.6904 16.2989 40.8379 16.2989C41.9861 16.2989 42.9191 15.3634 42.9191 14.2136C42.9191 13.0646 41.9861 12.1299 40.8379 12.1299Z" fill="white" fill-opacity="0.5"/>
<path d="M11.9666 6.34741C10.8192 6.34741 9.88531 7.28253 9.88531 8.43193C9.88531 9.58093 10.8192 10.5156 11.9666 10.5156C13.1144 10.5156 14.0483 9.58093 14.0483 8.43193C14.0483 7.28253 13.1148 6.34741 11.9666 6.34741Z" fill="white" fill-opacity="0.5"/>
<path d="M21.5908 0.56543C20.443 0.56543 19.5096 1.50095 19.5096 2.64995C19.5096 3.79936 20.4434 4.73447 21.5908 4.73447C22.7383 4.73447 23.6725 3.79936 23.6725 2.64995C23.6725 1.50095 22.7387 0.56543 21.5908 0.56543Z" fill="white" fill-opacity="0.5"/>
<path d="M21.5906 12.1299C20.4428 12.1299 19.5093 13.0646 19.5093 14.2136C19.5093 15.363 20.4432 16.2989 21.5906 16.2989C22.738 16.2989 23.6723 15.3634 23.6723 14.2136C23.6723 13.0646 22.7385 12.1299 21.5906 12.1299Z" fill="white" fill-opacity="0.5"/>
<path d="M31.2141 6.34741C30.0662 6.34741 29.1336 7.28253 29.1336 8.43193C29.1336 9.58093 30.0666 10.5156 31.2141 10.5156C32.3615 10.5156 33.2961 9.58093 33.2961 8.43193C33.2965 7.28253 32.3619 6.34741 31.2141 6.34741Z" fill="white" fill-opacity="0.5"/>
<path d="M31.2141 29.4766C30.0662 29.4766 29.1336 30.4113 29.1336 31.5599C29.1336 32.7093 30.0666 33.644 31.2141 33.644C32.3615 33.644 33.2961 32.7093 33.2961 31.5599C33.2965 30.4113 32.3619 29.4766 31.2141 29.4766Z" fill="white" fill-opacity="0.5"/>
<path d="M40.8379 23.6941C39.6904 23.6941 38.7566 24.6292 38.7566 25.7782C38.7566 26.9272 39.6904 27.8619 40.8379 27.8619C41.9861 27.8619 42.9191 26.9272 42.9191 25.7782C42.9191 24.6292 41.9861 23.6941 40.8379 23.6941Z" fill="white" fill-opacity="0.5"/>
<path d="M31.2141 41.0403C30.0662 41.0403 29.1336 41.975 29.1336 43.1244C29.1336 44.2734 30.0666 45.2081 31.2141 45.2081C32.3615 45.2081 33.2961 44.2734 33.2961 43.1244C33.2965 41.975 32.3619 41.0403 31.2141 41.0403Z" fill="white" fill-opacity="0.5"/>
<path d="M40.8379 35.2581C39.6904 35.2581 38.7566 36.1928 38.7566 37.3422C38.7566 38.4912 39.6904 39.4259 40.8379 39.4259C41.9861 39.4259 42.9191 38.4912 42.9191 37.3422C42.9191 36.1928 41.9861 35.2581 40.8379 35.2581Z" fill="white" fill-opacity="0.5"/>
<path d="M21.5906 46.8225C20.4428 46.8225 19.5093 47.7576 19.5093 48.9066C19.5093 50.0552 20.4432 50.9903 21.5906 50.9903C22.738 50.9903 23.6723 50.0552 23.6723 48.9066C23.6723 47.7576 22.7385 46.8225 21.5906 46.8225Z" fill="white" fill-opacity="0.5"/>
<path d="M21.5906 35.2581C20.4428 35.2581 19.5093 36.1928 19.5093 37.3422C19.5093 38.4912 20.4432 39.4259 21.5906 39.4259C22.738 39.4259 23.6723 38.4912 23.6723 37.3422C23.6723 36.1928 22.7385 35.2581 21.5906 35.2581Z" fill="white" fill-opacity="0.5"/>
<path d="M11.9666 17.9119C10.8192 17.9119 9.88533 18.847 9.88533 19.996C9.88533 21.1454 10.8192 22.0797 11.9666 22.0797C13.1144 22.0797 14.0483 21.145 14.0483 19.996C14.0483 18.847 13.1148 17.9119 11.9666 17.9119Z" fill="white" fill-opacity="0.5"/>
<path d="M11.9666 41.0403C10.8192 41.0403 9.88533 41.975 9.88533 43.1244C9.88533 44.2734 10.8192 45.2081 11.9666 45.2081C13.1144 45.2081 14.0483 44.2734 14.0483 43.1244C14.0483 41.975 13.1148 41.0403 11.9666 41.0403Z" fill="white" fill-opacity="0.5"/>
<path d="M11.9666 29.4766C10.8192 29.4766 9.88533 30.4113 9.88533 31.5599C9.88533 32.7093 10.8192 33.644 11.9666 33.644C13.1144 33.644 14.0483 32.7093 14.0483 31.5599C14.0483 30.4113 13.1148 29.4766 11.9666 29.4766Z" fill="white" fill-opacity="0.5"/>
<path d="M2.3432 12.1299C1.19536 12.1299 0.262333 13.0646 0.262333 14.2136C0.262333 15.363 1.19577 16.2989 2.3432 16.2989C3.49064 16.2989 4.42489 15.3634 4.42489 14.2136C4.42489 13.0646 3.49064 12.1299 2.3432 12.1299Z" fill="white" fill-opacity="0.5"/>
<path d="M2.3432 35.2581C1.19536 35.2581 0.262333 36.1928 0.262333 37.3422C0.262333 38.4912 1.19577 39.4259 2.3432 39.4259C3.49064 39.4259 4.42489 38.4912 4.42489 37.3422C4.42489 36.1928 3.49064 35.2581 2.3432 35.2581Z" fill="white" fill-opacity="0.5"/>
<path d="M2.3432 23.6941C1.19536 23.6941 0.262333 24.6292 0.262333 25.7782C0.262333 26.9272 1.19577 27.8619 2.3432 27.8619C3.49064 27.8619 4.42489 26.9272 4.42489 25.7782C4.42489 24.6292 3.49064 23.6941 2.3432 23.6941Z" fill="white" fill-opacity="0.5"/>
<path d="M236.794 7.35425C235.75 7.35425 234.899 8.20446 234.899 9.2502C234.899 10.2959 235.75 11.1466 236.794 11.1466C237.838 11.1466 238.688 10.2959 238.688 9.2502C238.688 8.20446 237.838 7.35425 236.794 7.35425Z" fill="white" fill-opacity="0.5"/>
<path d="M280.649 7.35425C279.605 7.35425 278.755 8.20446 278.755 9.2502C278.755 10.2959 279.605 11.1466 280.649 11.1466C281.694 11.1466 282.543 10.2959 282.543 9.2502C282.543 8.20446 281.694 7.35425 280.649 7.35425Z" fill="white" fill-opacity="0.5"/>
<path d="M270.714 38.7168C269.676 38.7168 268.83 39.5625 268.83 40.6025C268.83 41.6426 269.676 42.4891 270.714 42.4891C271.753 42.4891 272.598 41.6426 272.598 40.6025C272.598 39.5625 271.753 38.7168 270.714 38.7168Z" fill="white" fill-opacity="0.5"/>
</svg>
